{
	"asset":{
		"generator":"Khronos glTF Blender I/O v5.1.19",
		"version":"2.0"
	},
	"extensionsUsed":[
		"KHR_materials_unlit"
	],
	"scene":0,
	"scenes":[
		{
			"name":"Scene",
			"nodes":[
				0,
				1,
				2,
				3,
				4,
				5,
				6,
				7,
				8,
				9,
				10,
				11,
				12
			]
		}
	],
	"nodes":[
		{
			"mesh":0,
			"name":"Building",
			"rotation":[
				0,
				-0.7071067094802856,
				0,
				0.7071068286895752
			],
			"translation":[
				0.12774541974067688,
				1.2108664512634277,
				2.808887481689453
			]
		},
		{
			"mesh":1,
			"name":"Window",
			"rotation":[
				0,
				-0.7071067094802856,
				0,
				0.7071068286895752
			],
			"translation":[
				4.304152488708496,
				10.264212608337402,
				-0.87950599193573
			]
		},
		{
			"mesh":2,
			"name":"Scaffolding",
			"rotation":[
				0,
				-0.7071067094802856,
				0,
				0.7071068286895752
			],
			"translation":[
				-2.019085168838501,
				14.618566513061523,
				-3.638432025909424
			]
		},
		{
			"mesh":2,
			"name":"Scaffolding.001",
			"rotation":[
				0,
				-0.7071067094802856,
				0,
				0.7071068286895752
			],
			"translation":[
				-2.019085168838501,
				8.535985946655273,
				-3.638432025909424
			]
		},
		{
			"mesh":3,
			"name":"Stairs",
			"rotation":[
				0,
				0,
				0.4617486298084259,
				0.887010931968689
			],
			"scale":[
				1,
				0.8044041395187378,
				1
			],
			"translation":[
				-1.2915422916412354,
				11.307502746582031,
				-2.996232032775879
			]
		},
		{
			"mesh":4,
			"name":"Window.001",
			"rotation":[
				0,
				-0.7071067094802856,
				0,
				0.7071068286895752
			],
			"scale":[
				1,
				0.8928065299987793,
				1
			],
			"translation":[
				4.332678318023682,
				16.727706909179688,
				-1.385221004486084
			]
		},
		{
			"mesh":1,
			"name":"Window.002",
			"rotation":[
				0,
				-0.7071067094802856,
				0,
				0.7071068286895752
			],
			"translation":[
				0.01762104034423828,
				3.9440011978149414,
				-0.87950599193573
			]
		},
		{
			"mesh":5,
			"name":"Airco",
			"rotation":[
				0,
				-0.7071068286895752,
				0.7071068286895752,
				5.338508302088485e-08
			],
			"translation":[
				4.984677314758301,
				9.894694328308105,
				-1.6030117273330688
			]
		},
		{
			"mesh":5,
			"name":"Airco.001",
			"rotation":[
				0.4999999403953552,
				-0.5,
				0.5000000596046448,
				0.5
			],
			"translation":[
				-7.147883892059326,
				16.389732360839844,
				0.7589370012283325
			]
		},
		{
			"mesh":5,
			"name":"Airco.002",
			"rotation":[
				0,
				-0.7071068286895752,
				0.7071068286895752,
				5.338508302088485e-08
			],
			"translation":[
				-4.363962173461914,
				3.5793230533599854,
				-1.6030117273330688
			]
		},
		{
			"mesh":6,
			"name":"Cylinder",
			"rotation":[
				0,
				-0.7071067094802856,
				0,
				0.7071068286895752
			],
			"scale":[
				1.188421607017517,
				1.188421607017517,
				1.188421607017517
			],
			"translation":[
				4.684248447418213,
				25.331872940063477,
				8.214954376220703
			]
		},
		{
			"mesh":7,
			"name":"Window.003",
			"rotation":[
				0,
				-0.7071067094802856,
				0,
				0.7071068286895752
			],
			"scale":[
				1,
				0.8928065299987793,
				1
			],
			"translation":[
				0.07535603642463684,
				17.84884262084961,
				-1.5887101888656616
			]
		},
		{
			"mesh":8,
			"name":"RoofExit",
			"rotation":[
				0,
				-0.7071067094802856,
				0,
				0.7071068286895752
			],
			"translation":[
				-3.2726640701293945,
				23.766986846923828,
				7.697577953338623
			]
		}
	],
	"materials":[
		{
			"doubleSided":true,
			"extensions":{
				"KHR_materials_unlit":{}
			},
			"name":"Toon Shader",
			"pbrMetallicRoughness":{
				"metallicFactor":0,
				"roughnessFactor":0.9
			}
		},
		{
			"doubleSided":true,
			"extensions":{
				"KHR_materials_unlit":{}
			},
			"name":"Toon Shader.001",
			"pbrMetallicRoughness":{
				"metallicFactor":0,
				"roughnessFactor":0.9
			}
		},
		{
			"doubleSided":true,
			"extensions":{
				"KHR_materials_unlit":{}
			},
			"name":"Toon Shader.002",
			"pbrMetallicRoughness":{
				"metallicFactor":0,
				"roughnessFactor":0.9
			}
		}
	],
	"meshes":[
		{
			"name":"Cube",
			"primitives":[
				{
					"attributes":{
						"POSITION":0,
						"NORMAL":1,
						"TEXCOORD_0":2
					},
					"indices":3,
					"material":0
				},
				{
					"attributes":{
						"POSITION":4,
						"NORMAL":5,
						"TEXCOORD_0":6
					},
					"indices":7,
					"material":1
				}
			]
		},
		{
			"name":"Cube.008",
			"primitives":[
				{
					"attributes":{
						"POSITION":8,
						"NORMAL":9,
						"TEXCOORD_0":10
					},
					"indices":11,
					"material":1
				},
				{
					"attributes":{
						"POSITION":12,
						"NORMAL":13,
						"TEXCOORD_0":14
					},
					"indices":15,
					"material":2
				}
			]
		},
		{
			"name":"Cube.001",
			"primitives":[
				{
					"attributes":{
						"POSITION":16,
						"NORMAL":17,
						"TEXCOORD_0":18
					},
					"indices":19,
					"material":1
				}
			]
		},
		{
			"name":"Plane",
			"primitives":[
				{
					"attributes":{
						"POSITION":20,
						"NORMAL":21,
						"TEXCOORD_0":22
					},
					"indices":23,
					"material":1
				}
			]
		},
		{
			"name":"Cube.002",
			"primitives":[
				{
					"attributes":{
						"POSITION":24,
						"NORMAL":25,
						"TEXCOORD_0":26
					},
					"indices":27,
					"material":1
				},
				{
					"attributes":{
						"POSITION":28,
						"NORMAL":29,
						"TEXCOORD_0":30
					},
					"indices":31,
					"material":2
				}
			]
		},
		{
			"name":"Cube.005",
			"primitives":[
				{
					"attributes":{
						"POSITION":32,
						"NORMAL":33,
						"TEXCOORD_0":34
					},
					"indices":35,
					"material":1
				}
			]
		},
		{
			"name":"Cylinder",
			"primitives":[
				{
					"attributes":{
						"POSITION":36,
						"NORMAL":37,
						"TEXCOORD_0":38
					},
					"indices":39,
					"material":1
				}
			]
		},
		{
			"name":"Cube.003",
			"primitives":[
				{
					"attributes":{
						"POSITION":40,
						"NORMAL":41,
						"TEXCOORD_0":42
					},
					"indices":43,
					"material":1
				}
			]
		},
		{
			"name":"Cube.006",
			"primitives":[
				{
					"attributes":{
						"POSITION":44,
						"NORMAL":45,
						"TEXCOORD_0":46
					},
					"indices":47,
					"material":0
				},
				{
					"attributes":{
						"POSITION":48,
						"NORMAL":49,
						"TEXCOORD_0":50
					},
					"indices":51,
					"material":1
				}
			]
		}
	],
	"accessors":[
		{
			"bufferView":0,
			"componentType":5126,
			"count":389,
			"max":[
				7.592157363891602,
				20.67107391357422,
				6.727650165557861
			],
			"min":[
				-4.0629072189331055,
				0.394807904958725,
				-6.637258529663086
			],
			"type":"VEC3"
		},
		{
			"bufferView":1,
			"componentType":5126,
			"count":389,
			"type":"VEC3"
		},
		{
			"bufferView":2,
			"componentType":5126,
			"count":389,
			"type":"VEC2"
		},
		{
			"bufferView":3,
			"componentType":5123,
			"count":864,
			"type":"SCALAR"
		},
		{
			"bufferView":4,
			"componentType":5126,
			"count":858,
			"max":[
				8.018335342407227,
				21.088489532470703,
				7.26179838180542
			],
			"min":[
				-5.9211554527282715,
				-1.1073498725891113,
				-7.171406269073486
			],
			"type":"VEC3"
		},
		{
			"bufferView":5,
			"componentType":5126,
			"count":858,
			"type":"VEC3"
		},
		{
			"bufferView":6,
			"componentType":5126,
			"count":858,
			"type":"VEC2"
		},
		{
			"bufferView":7,
			"componentType":5123,
			"count":2112,
			"type":"SCALAR"
		},
		{
			"bufferView":8,
			"componentType":5126,
			"count":366,
			"max":[
				0.3362349271774292,
				3.53303599357605,
				1.4907782077789307
			],
			"min":[
				-0.5829147696495056,
				-1.2964231967926025,
				-1.5330536365509033
			],
			"type":"VEC3"
		},
		{
			"bufferView":9,
			"componentType":5126,
			"count":366,
			"type":"VEC3"
		},
		{
			"bufferView":10,
			"componentType":5126,
			"count":366,
			"type":"VEC2"
		},
		{
			"bufferView":11,
			"componentType":5123,
			"count":636,
			"type":"SCALAR"
		},
		{
			"bufferView":12,
			"componentType":5126,
			"count":4,
			"max":[
				0.2995677888393402,
				2.8260481357574463,
				1.012352466583252
			],
			"min":[
				0.2995677590370178,
				-0.7912577390670776,
				-1.0657294988632202
			],
			"type":"VEC3"
		},
		{
			"bufferView":13,
			"componentType":5126,
			"count":4,
			"type":"VEC3"
		},
		{
			"bufferView":14,
			"componentType":5126,
			"count":4,
			"type":"VEC2"
		},
		{
			"bufferView":15,
			"componentType":5123,
			"count":6,
			"type":"SCALAR"
		},
		{
			"bufferView":16,
			"componentType":5126,
			"count":895,
			"max":[
				2.085766315460205,
				0.9772729873657227,
				4.138298511505127
			],
			"min":[
				-1.0028257369995117,
				-0.975703239440918,
				-4.321533679962158
			],
			"type":"VEC3"
		},
		{
			"bufferView":17,
			"componentType":5126,
			"count":895,
			"type":"VEC3"
		},
		{
			"bufferView":18,
			"componentType":5126,
			"count":895,
			"type":"VEC2"
		},
		{
			"bufferView":19,
			"componentType":5123,
			"count":1794,
			"type":"SCALAR"
		},
		{
			"bufferView":20,
			"componentType":5126,
			"count":260,
			"max":[
				2.5964739322662354,
				1.1925145387649536,
				0.2879897654056549
			],
			"min":[
				-4.849586009979248,
				0.5869770050048828,
				-1.2090668678283691
			],
			"type":"VEC3"
		},
		{
			"bufferView":21,
			"componentType":5126,
			"count":260,
			"type":"VEC3"
		},
		{
			"bufferView":22,
			"componentType":5126,
			"count":260,
			"type":"VEC2"
		},
		{
			"bufferView":23,
			"componentType":5123,
			"count":390,
			"type":"SCALAR"
		},
		{
			"bufferView":24,
			"componentType":5126,
			"count":738,
			"max":[
				0.11613421887159348,
				3.53303599357605,
				10.02137565612793
			],
			"min":[
				-0.760188102722168,
				-1.4555155038833618,
				-1.5330536365509033
			],
			"type":"VEC3"
		},
		{
			"bufferView":25,
			"componentType":5126,
			"count":738,
			"type":"VEC3"
		},
		{
			"bufferView":26,
			"componentType":5126,
			"count":738,
			"type":"VEC2"
		},
		{
			"bufferView":27,
			"componentType":5123,
			"count":1260,
			"type":"SCALAR"
		},
		{
			"bufferView":28,
			"componentType":5126,
			"count":12,
			"max":[
				0.2995677888393402,
				2.8260481357574463,
				9.542949676513672
			],
			"min":[
				0.12229442596435547,
				-0.9503501057624817,
				-1.0657294988632202
			],
			"type":"VEC3"
		},
		{
			"bufferView":29,
			"componentType":5126,
			"count":12,
			"type":"VEC3"
		},
		{
			"bufferView":30,
			"componentType":5126,
			"count":12,
			"type":"VEC2"
		},
		{
			"bufferView":31,
			"componentType":5123,
			"count":18,
			"type":"SCALAR"
		},
		{
			"bufferView":32,
			"componentType":5126,
			"count":188,
			"max":[
				1.189746379852295,
				0.5096964836120605,
				0.7856497764587402
			],
			"min":[
				-0.6101278066635132,
				-0.8276989459991455,
				-0.7139333486557007
			],
			"type":"VEC3"
		},
		{
			"bufferView":33,
			"componentType":5126,
			"count":188,
			"type":"VEC3"
		},
		{
			"bufferView":34,
			"componentType":5126,
			"count":188,
			"type":"VEC2"
		},
		{
			"bufferView":35,
			"componentType":5123,
			"count":366,
			"type":"SCALAR"
		},
		{
			"bufferView":36,
			"componentType":5126,
			"count":452,
			"max":[
				1.4986480474472046,
				2.3334741592407227,
				1.4699199199676514
			],
			"min":[
				-1.525773286819458,
				-2.9029526710510254,
				-1.5079997777938843
			],
			"type":"VEC3"
		},
		{
			"bufferView":37,
			"componentType":5126,
			"count":452,
			"type":"VEC3"
		},
		{
			"bufferView":38,
			"componentType":5126,
			"count":452,
			"type":"VEC2"
		},
		{
			"bufferView":39,
			"componentType":5123,
			"count":762,
			"type":"SCALAR"
		},
		{
			"bufferView":40,
			"componentType":5126,
			"count":308,
			"max":[
				0.22619247436523438,
				1.7243623733520508,
				5.404491901397705
			],
			"min":[
				-0.17118167877197266,
				-2.3580667972564697,
				-5.384286403656006
			],
			"type":"VEC3"
		},
		{
			"bufferView":41,
			"componentType":5126,
			"count":308,
			"type":"VEC3"
		},
		{
			"bufferView":42,
			"componentType":5126,
			"count":308,
			"type":"VEC2"
		},
		{
			"bufferView":43,
			"componentType":5123,
			"count":570,
			"type":"SCALAR"
		},
		{
			"bufferView":44,
			"componentType":5126,
			"count":20,
			"max":[
				2.354187488555908,
				1.1207447052001953,
				1.580355167388916
			],
			"min":[
				-0.8871335983276367,
				-1.8850460052490234,
				-1.6663151979446411
			],
			"type":"VEC3"
		},
		{
			"bufferView":45,
			"componentType":5126,
			"count":20,
			"type":"VEC3"
		},
		{
			"bufferView":46,
			"componentType":5126,
			"count":20,
			"type":"VEC2"
		},
		{
			"bufferView":47,
			"componentType":5123,
			"count":36,
			"type":"SCALAR"
		},
		{
			"bufferView":48,
			"componentType":5126,
			"count":108,
			"max":[
				2.6745829582214355,
				1.4594898223876953,
				2.0090880393981934
			],
			"min":[
				-1.2457585334777832,
				-1.8850460052490234,
				-2.0950474739074707
			],
			"type":"VEC3"
		},
		{
			"bufferView":49,
			"componentType":5126,
			"count":108,
			"type":"VEC3"
		},
		{
			"bufferView":50,
			"componentType":5126,
			"count":108,
			"type":"VEC2"
		},
		{
			"bufferView":51,
			"componentType":5123,
			"count":162,
			"type":"SCALAR"
		}
	],
	"bufferViews":[
		{
			"buffer":0,
			"byteLength":4668,
			"byteOffset":0,
			"target":34962
		},
		{
			"buffer":0,
			"byteLength":4668,
			"byteOffset":4668,
			"target":34962
		},
		{
			"buffer":0,
			"byteLength":3112,
			"byteOffset":9336,
			"target":34962
		},
		{
			"buffer":0,
			"byteLength":1728,
			"byteOffset":12448,
			"target":34963
		},
		{
			"buffer":0,
			"byteLength":10296,
			"byteOffset":14176,
			"target":34962
		},
		{
			"buffer":0,
			"byteLength":10296,
			"byteOffset":24472,
			"target":34962
		},
		{
			"buffer":0,
			"byteLength":6864,
			"byteOffset":34768,
			"target":34962
		},
		{
			"buffer":0,
			"byteLength":4224,
			"byteOffset":41632,
			"target":34963
		},
		{
			"buffer":0,
			"byteLength":4392,
			"byteOffset":45856,
			"target":34962
		},
		{
			"buffer":0,
			"byteLength":4392,
			"byteOffset":50248,
			"target":34962
		},
		{
			"buffer":0,
			"byteLength":2928,
			"byteOffset":54640,
			"target":34962
		},
		{
			"buffer":0,
			"byteLength":1272,
			"byteOffset":57568,
			"target":34963
		},
		{
			"buffer":0,
			"byteLength":48,
			"byteOffset":58840,
			"target":34962
		},
		{
			"buffer":0,
			"byteLength":48,
			"byteOffset":58888,
			"target":34962
		},
		{
			"buffer":0,
			"byteLength":32,
			"byteOffset":58936,
			"target":34962
		},
		{
			"buffer":0,
			"byteLength":12,
			"byteOffset":58968,
			"target":34963
		},
		{
			"buffer":0,
			"byteLength":10740,
			"byteOffset":58980,
			"target":34962
		},
		{
			"buffer":0,
			"byteLength":10740,
			"byteOffset":69720,
			"target":34962
		},
		{
			"buffer":0,
			"byteLength":7160,
			"byteOffset":80460,
			"target":34962
		},
		{
			"buffer":0,
			"byteLength":3588,
			"byteOffset":87620,
			"target":34963
		},
		{
			"buffer":0,
			"byteLength":3120,
			"byteOffset":91208,
			"target":34962
		},
		{
			"buffer":0,
			"byteLength":3120,
			"byteOffset":94328,
			"target":34962
		},
		{
			"buffer":0,
			"byteLength":2080,
			"byteOffset":97448,
			"target":34962
		},
		{
			"buffer":0,
			"byteLength":780,
			"byteOffset":99528,
			"target":34963
		},
		{
			"buffer":0,
			"byteLength":8856,
			"byteOffset":100308,
			"target":34962
		},
		{
			"buffer":0,
			"byteLength":8856,
			"byteOffset":109164,
			"target":34962
		},
		{
			"buffer":0,
			"byteLength":5904,
			"byteOffset":118020,
			"target":34962
		},
		{
			"buffer":0,
			"byteLength":2520,
			"byteOffset":123924,
			"target":34963
		},
		{
			"buffer":0,
			"byteLength":144,
			"byteOffset":126444,
			"target":34962
		},
		{
			"buffer":0,
			"byteLength":144,
			"byteOffset":126588,
			"target":34962
		},
		{
			"buffer":0,
			"byteLength":96,
			"byteOffset":126732,
			"target":34962
		},
		{
			"buffer":0,
			"byteLength":36,
			"byteOffset":126828,
			"target":34963
		},
		{
			"buffer":0,
			"byteLength":2256,
			"byteOffset":126864,
			"target":34962
		},
		{
			"buffer":0,
			"byteLength":2256,
			"byteOffset":129120,
			"target":34962
		},
		{
			"buffer":0,
			"byteLength":1504,
			"byteOffset":131376,
			"target":34962
		},
		{
			"buffer":0,
			"byteLength":732,
			"byteOffset":132880,
			"target":34963
		},
		{
			"buffer":0,
			"byteLength":5424,
			"byteOffset":133612,
			"target":34962
		},
		{
			"buffer":0,
			"byteLength":5424,
			"byteOffset":139036,
			"target":34962
		},
		{
			"buffer":0,
			"byteLength":3616,
			"byteOffset":144460,
			"target":34962
		},
		{
			"buffer":0,
			"byteLength":1524,
			"byteOffset":148076,
			"target":34963
		},
		{
			"buffer":0,
			"byteLength":3696,
			"byteOffset":149600,
			"target":34962
		},
		{
			"buffer":0,
			"byteLength":3696,
			"byteOffset":153296,
			"target":34962
		},
		{
			"buffer":0,
			"byteLength":2464,
			"byteOffset":156992,
			"target":34962
		},
		{
			"buffer":0,
			"byteLength":1140,
			"byteOffset":159456,
			"target":34963
		},
		{
			"buffer":0,
			"byteLength":240,
			"byteOffset":160596,
			"target":34962
		},
		{
			"buffer":0,
			"byteLength":240,
			"byteOffset":160836,
			"target":34962
		},
		{
			"buffer":0,
			"byteLength":160,
			"byteOffset":161076,
			"target":34962
		},
		{
			"buffer":0,
			"byteLength":72,
			"byteOffset":161236,
			"target":34963
		},
		{
			"buffer":0,
			"byteLength":1296,
			"byteOffset":161308,
			"target":34962
		},
		{
			"buffer":0,
			"byteLength":1296,
			"byteOffset":162604,
			"target":34962
		},
		{
			"buffer":0,
			"byteLength":864,
			"byteOffset":163900,
			"target":34962
		},
		{
			"buffer":0,
			"byteLength":324,
			"byteOffset":164764,
			"target":34963
		}
	],
	"buffers":[
		{
			"byteLength":165088,
			"uri":"data:application/octet-stream;base64,"
		}
	]
}
